REM DIRINDEX 1\2,1\4,1\5,1\6,1\7,1\3\8,1\3\9,1\3\10
REM DIRNAME folder01,folder02,folder03,folder04,folder05,folder06,folder07,folder08,folder09,folder10
TITLE ""
FILE "DB4500_5th_4B_31.mp3" MP3
  TRACK 01 AUDIO
    TITLE "0:"
    INDEX 01 00:00:00
  TRACK 02 AUDIO
    TITLE "8:cjc113_2911"
    INDEX 01 00:00:01
  TRACK 03 AUDIO
    TITLE "0:"
    INDEX 01 00:01:42
  TRACK 04 AUDIO
    TITLE "9:cjc113_2912"
    INDEX 01 00:01:60
  TRACK 05 AUDIO
    TITLE "0:"
    INDEX 01 00:03:04
  TRACK 06 AUDIO
    TITLE "10:cjc113_2913"
    INDEX 01 00:03:25
  TRACK 07 AUDIO
    TITLE "0:"
    INDEX 01 00:07:17
  TRACK 08 AUDIO
    TITLE "8:cjc113_2914"
    INDEX 01 00:07:56
  TRACK 09 AUDIO
    TITLE "0:"
    INDEX 01 00:09:06
  TRACK 10 AUDIO
    TITLE "9:cjc113_2915"
    INDEX 01 00:09:24
  TRACK 11 AUDIO
    TITLE "0:"
    INDEX 01 00:10:41
  TRACK 12 AUDIO
    TITLE "10:cjc113_2916"
    INDEX 01 00:10:59
  TRACK 13 AUDIO
    TITLE "0:"
    INDEX 01 00:14:68
  TRACK 14 AUDIO
    TITLE "8:cjc113_2917"
    INDEX 01 00:15:36
  TRACK 15 AUDIO
    TITLE "0:"
    INDEX 01 00:18:35
  TRACK 16 AUDIO
    TITLE "9:cjc113_2918"
    INDEX 01 00:18:52
  TRACK 17 AUDIO
    TITLE "0:"
    INDEX 01 00:20:37
  TRACK 18 AUDIO
    TITLE "10:cjc113_2919"
    INDEX 01 00:20:57
  TRACK 19 AUDIO
    TITLE "0:"
    INDEX 01 00:24:14
  TRACK 20 AUDIO
    TITLE "8:cjc113_2920"
    INDEX 01 00:24:59
  TRACK 21 AUDIO
    TITLE "0:"
    INDEX 01 00:26:01
  TRACK 22 AUDIO
    TITLE "9:cjc113_2921"
    INDEX 01 00:26:17
  TRACK 23 AUDIO
    TITLE "0:"
    INDEX 01 00:27:34
  TRACK 24 AUDIO
    TITLE "10:cjc113_2922"
    INDEX 01 00:27:51
  TRACK 25 AUDIO
    TITLE "0:"
    INDEX 01 00:31:29
  TRACK 26 AUDIO
    TITLE "8:cjc113_2923"
    INDEX 01 00:31:71
  TRACK 27 AUDIO
    TITLE "0:"
    INDEX 01 00:32:74
  TRACK 28 AUDIO
    TITLE "9:cjc113_2924"
    INDEX 01 00:33:21
  TRACK 29 AUDIO
    TITLE "0:"
    INDEX 01 00:34:22
  TRACK 30 AUDIO
    TITLE "10:cjc113_2925"
    INDEX 01 00:34:42
  TRACK 31 AUDIO
    TITLE "0:"
    INDEX 01 00:38:63
  TRACK 32 AUDIO
    TITLE "8:cjc113_2926"
    INDEX 01 00:39:33
  TRACK 33 AUDIO
    TITLE "0:"
    INDEX 01 00:40:50
  TRACK 34 AUDIO
    TITLE "9:cjc113_2927"
    INDEX 01 00:40:72
  TRACK 35 AUDIO
    TITLE "0:"
    INDEX 01 00:42:31
  TRACK 36 AUDIO
    TITLE "10:cjc113_2928"
    INDEX 01 00:42:53
  TRACK 37 AUDIO
    TITLE "0:"
    INDEX 01 00:45:16
  TRACK 38 AUDIO
    TITLE "8:cjc113_2929"
    INDEX 01 00:45:59
  TRACK 39 AUDIO
    TITLE "0:"
    INDEX 01 00:47:21
  TRACK 40 AUDIO
    TITLE "9:cjc113_2930"
    INDEX 01 00:47:34
  TRACK 41 AUDIO
    TITLE "0:"
    INDEX 01 00:48:38
  TRACK 42 AUDIO
    TITLE "10:cjc113_2931"
    INDEX 01 00:48:57
  TRACK 43 AUDIO
    TITLE "0:"
    INDEX 01 00:52:12
  TRACK 44 AUDIO
    TITLE "8:cjc113_2932"
    INDEX 01 00:52:55
  TRACK 45 AUDIO
    TITLE "0:"
    INDEX 01 00:54:07
  TRACK 46 AUDIO
    TITLE "9:cjc113_2933"
    INDEX 01 00:54:23
  TRACK 47 AUDIO
    TITLE "0:"
    INDEX 01 00:55:59
  TRACK 48 AUDIO
    TITLE "10:cjc113_2934"
    INDEX 01 00:56:04
  TRACK 49 AUDIO
    TITLE "0:"
    INDEX 01 00:59:04
  TRACK 50 AUDIO
    TITLE "8:cjc113_2935"
    INDEX 01 00:59:51
  TRACK 51 AUDIO
    TITLE "0:"
    INDEX 01 01:00:72
  TRACK 52 AUDIO
    TITLE "9:cjc113_2936"
    INDEX 01 01:01:21
  TRACK 53 AUDIO
    TITLE "0:"
    INDEX 01 01:02:54
  TRACK 54 AUDIO
    TITLE "10:cjc113_2937"
    INDEX 01 01:03:02
  TRACK 55 AUDIO
    TITLE "0:"
    INDEX 01 01:07:12
  TRACK 56 AUDIO
    TITLE "8:cjc113_2938"
    INDEX 01 01:07:57
  TRACK 57 AUDIO
    TITLE "0:"
    INDEX 01 01:08:70
  TRACK 58 AUDIO
    TITLE "9:cjc113_2939"
    INDEX 01 01:09:14
  TRACK 59 AUDIO
    TITLE "0:"
    INDEX 01 01:10:33
  TRACK 60 AUDIO
    TITLE "10:cjc113_2940"
    INDEX 01 01:10:55
  TRACK 61 AUDIO
    TITLE "0:"
    INDEX 01 01:15:60
  TRACK 62 AUDIO
    TITLE "8:cjc113_2941"
    INDEX 01 01:16:32
  TRACK 63 AUDIO
    TITLE "0:"
    INDEX 01 01:17:63
  TRACK 64 AUDIO
    TITLE "9:cjc113_2942"
    INDEX 01 01:18:09
  TRACK 65 AUDIO
    TITLE "0:"
    INDEX 01 01:19:58
  TRACK 66 AUDIO
    TITLE "10:cjc113_2943"
    INDEX 01 01:20:06
  TRACK 67 AUDIO
    TITLE "0:"
    INDEX 01 01:26:27
  TRACK 68 AUDIO
    TITLE "8:cjc113_2944"
    INDEX 01 01:27:03
  TRACK 69 AUDIO
    TITLE "0:"
    INDEX 01 01:28:24
  TRACK 70 AUDIO
    TITLE "9:cjc113_2945"
    INDEX 01 01:28:47
  TRACK 71 AUDIO
    TITLE "0:"
    INDEX 01 01:30:13
  TRACK 72 AUDIO
    TITLE "10:cjc113_2946"
    INDEX 01 01:30:36
  TRACK 73 AUDIO
    TITLE "0:"
    INDEX 01 01:34:38
  TRACK 74 AUDIO
    TITLE "8:cjc113_2947"
    INDEX 01 01:35:10
  TRACK 75 AUDIO
    TITLE "0:"
    INDEX 01 01:36:37
  TRACK 76 AUDIO
    TITLE "9:cjc113_2948"
    INDEX 01 01:36:62
  TRACK 77 AUDIO
    TITLE "0:"
    INDEX 01 01:38:08
  TRACK 78 AUDIO
    TITLE "10:cjc113_2949"
    INDEX 01 01:38:30
  TRACK 79 AUDIO
    TITLE "0:"
    INDEX 01 01:43:39
  TRACK 80 AUDIO
    TITLE "8:cjc113_2950"
    INDEX 01 01:44:13
  TRACK 81 AUDIO
    TITLE "0:"
    INDEX 01 01:45:28
  TRACK 82 AUDIO
    TITLE "9:cjc113_2951"
    INDEX 01 01:45:51
  TRACK 83 AUDIO
    TITLE "0:"
    INDEX 01 01:48:14
  TRACK 84 AUDIO
    TITLE "10:cjc113_2952"
    INDEX 01 01:48:32
  TRACK 85 AUDIO
    TITLE "0:"
    INDEX 01 01:53:23
